<mxfile host="65bd71144e">
    <diagram name="ML Model Tree" id="0">
        <mxGraphModel dx="915" dy="1679" grid="1" gridSize="10" guides="1" tooltips="1" connect="1" arrows="1" fold="1" page="1" pageScale="1" pageWidth="850" pageHeight="1100" math="0" shadow="0">
            <root>
                <mxCell id="0"/>
                <mxCell id="1" parent="0"/>
                <mxCell id="ML" value="ML" style="ellipse;whiteSpace=wrap;html=1;fillColor=#d5e8d4;fontColor=#000000;" parent="1" vertex="1">
                    <mxGeometry x="400" y="50" width="120" height="60" as="geometry"/>
                </mxCell>
                <mxCell id="Classification" value="Classification" style="rounded=1;whiteSpace=wrap;html=1;fillColor=#fff2cc;fontColor=#000000;" parent="1" vertex="1">
                    <mxGeometry x="260" y="110" width="140" height="60" as="geometry"/>
                </mxCell>
                <mxCell id="edge1" parent="1" source="ML" target="Classification" edge="1">
                    <mxGeometry relative="1" as="geometry"/>
                </mxCell>
                <mxCell id="Regression" value="Regression" style="rounded=1;whiteSpace=wrap;html=1;fillColor=#fff2cc;fontColor=#000000;" parent="1" vertex="1">
                    <mxGeometry x="260" y="-10" width="140" height="60" as="geometry"/>
                </mxCell>
                <mxCell id="edge2" parent="1" source="ML" target="Regression" edge="1">
                    <mxGeometry relative="1" as="geometry"/>
                </mxCell>
                <mxCell id="Clustering" value="Clustering" style="rounded=1;whiteSpace=wrap;html=1;fillColor=#fff2cc;fontColor=#000000;" parent="1" vertex="1">
                    <mxGeometry x="520" y="-10" width="140" height="60" as="geometry"/>
                </mxCell>
                <mxCell id="edge3" parent="1" source="ML" target="Clustering" edge="1">
                    <mxGeometry relative="1" as="geometry"/>
                </mxCell>
                <mxCell id="DimensionalityReduction" value="Dimensionality Reduction" style="rounded=1;whiteSpace=wrap;html=1;fillColor=#fff2cc;fontColor=#000000;" parent="1" vertex="1">
                    <mxGeometry x="520" y="110" width="180" height="60" as="geometry"/>
                </mxCell>
                <mxCell id="edge4" parent="1" source="ML" target="DimensionalityReduction" edge="1">
                    <mxGeometry relative="1" as="geometry"/>
                </mxCell>
                <mxCell id="KNN" value="KNN" style="ellipse;whiteSpace=wrap;html=1;fillColor=#dae8fc;fontColor=#000000;" parent="1" vertex="1">
                    <mxGeometry x="50" y="210" width="120" height="60" as="geometry"/>
                </mxCell>
                <mxCell id="LogisticRegression" value="Logistic Regression" style="ellipse;whiteSpace=wrap;html=1;fillColor=#dae8fc;fontColor=#000000;" parent="1" vertex="1">
                    <mxGeometry x="240" y="290" width="160" height="60" as="geometry"/>
                </mxCell>
                <mxCell id="SVM" value="SVM" style="ellipse;whiteSpace=wrap;html=1;fillColor=#dae8fc;fontColor=#000000;" parent="1" vertex="1">
                    <mxGeometry x="50" y="130" width="120" height="60" as="geometry"/>
                </mxCell>
                <mxCell id="edge5" parent="1" source="Classification" target="KNN" edge="1">
                    <mxGeometry relative="1" as="geometry"/>
                </mxCell>
                <mxCell id="edge6" parent="1" source="Classification" target="LogisticRegression" edge="1">
                    <mxGeometry relative="1" as="geometry"/>
                </mxCell>
                <mxCell id="edge7" parent="1" source="Classification" target="SVM" edge="1">
                    <mxGeometry relative="1" as="geometry"/>
                </mxCell>
                <mxCell id="LinearRegression" value="Linear Regression" style="ellipse;whiteSpace=wrap;html=1;fillColor=#dae8fc;fontColor=#000000;" parent="1" vertex="1">
                    <mxGeometry x="120" y="-180" width="160" height="60" as="geometry"/>
                </mxCell>
                <mxCell id="DecisionTrees" value="Decision Trees" style="ellipse;whiteSpace=wrap;html=1;fillColor=#dae8fc;fontColor=#000000;" parent="1" vertex="1">
                    <mxGeometry x="70" y="-100" width="140" height="60" as="geometry"/>
                </mxCell>
                <mxCell id="RandomForests" value="Random Forests" style="ellipse;whiteSpace=wrap;html=1;fillColor=#dae8fc;fontColor=#000000;" parent="1" vertex="1">
                    <mxGeometry x="290" y="-180" width="160" height="60" as="geometry"/>
                </mxCell>
                <mxCell id="edge8" parent="1" source="Regression" target="LinearRegression" edge="1">
                    <mxGeometry relative="1" as="geometry"/>
                </mxCell>
                <mxCell id="edge9" parent="1" source="Regression" target="DecisionTrees" edge="1">
                    <mxGeometry relative="1" as="geometry"/>
                </mxCell>
                <mxCell id="edge12" parent="1" source="Regression" target="RandomForests" edge="1">
                    <mxGeometry relative="1" as="geometry"/>
                </mxCell>
                <mxCell id="KMeans" value="KMeans" style="ellipse;whiteSpace=wrap;html=1;fillColor=#dae8fc;fontColor=#000000;" parent="1" vertex="1">
                    <mxGeometry x="630" y="-80" width="120" height="60" as="geometry"/>
                </mxCell>
                <mxCell id="edge10" parent="1" source="Clustering" target="KMeans" edge="1">
                    <mxGeometry relative="1" as="geometry"/>
                </mxCell>
                <mxCell id="PCA" value="PCA" style="ellipse;whiteSpace=wrap;html=1;fillColor=#dae8fc;fontColor=#000000;" parent="1" vertex="1">
                    <mxGeometry x="660" y="190" width="120" height="60" as="geometry"/>
                </mxCell>
                <mxCell id="edge11" parent="1" source="DimensionalityReduction" target="PCA" edge="1">
                    <mxGeometry relative="1" as="geometry"/>
                </mxCell>
                <mxCell id="NaiveBayes" value="Naive Bayes" style="ellipse;whiteSpace=wrap;html=1;fillColor=#dae8fc;fontColor=#000000;" parent="1" vertex="1">
                    <mxGeometry x="90" y="287" width="140" height="60" as="geometry"/>
                </mxCell>
                <mxCell id="Perceptron" value="Perceptron" style="ellipse;whiteSpace=wrap;html=1;fillColor=#dae8fc;fontColor=#000000;" parent="1" vertex="1">
                    <mxGeometry x="50" y="50" width="120" height="60" as="geometry"/>
                </mxCell>
                <mxCell id="edge13" parent="1" source="Classification" target="NaiveBayes" edge="1">
                    <mxGeometry relative="1" as="geometry"/>
                </mxCell>
                <mxCell id="edge14" parent="1" source="Classification" target="Perceptron" edge="1">
                    <mxGeometry relative="1" as="geometry"/>
                </mxCell>
            </root>
        </mxGraphModel>
    </diagram>
</mxfile>